<svg id="图层_1" data-name="图层 1" xmlns="http://www.w3.org/2000/svg" viewBox="0 0 300 370"><title>tim-logo</title><path d="M299.88,70H140.12A70.12,70.12,0,0,0,70,140.12V299.88A70.12,70.12,0,0,0,140.12,370h58.62l87.48,69.48a2.38,2.38,0,0,0,3.86-1.83L291.25,370h8.63A70.12,70.12,0,0,0,370,299.88V140.12A70.12,70.12,0,0,0,299.88,70Zm0,227.88L265.34,323a2.2,2.2,0,0,1-3.07-.48l-39.82-54.81a2.19,2.19,0,0,0-3.55,0l-39.83,54.81A2.19,2.19,0,0,1,176,323l-34.54-25.09a2.2,2.2,0,0,1-.49-3.07l40.18-55.3a2.19,2.19,0,0,0-1.1-3.38l-66.48-21.6a2.21,2.21,0,0,1-1.41-2.77l13.2-40.6a2.18,2.18,0,0,1,2.76-1.41l66.13,21.48a2.19,2.19,0,0,0,2.87-2.08V121.3a2.2,2.2,0,0,1,2.2-2.2H242a2.21,2.21,0,0,1,2.2,2.2v67.85a2.19,2.19,0,0,0,2.87,2.08l66.12-21.48a2.19,2.19,0,0,1,2.77,1.41l13.19,40.6a2.19,2.19,0,0,1-1.41,2.77l-66.48,21.6a2.2,2.2,0,0,0-1.1,3.38l40.18,55.3A2.19,2.19,0,0,1,299.88,297.88Z" transform="translate(-70 -70)" style="fill:#0189fb"/></svg>